<?xml version="1.0" encoding="UTF-8"?>
<svg xmlns="http://www.w3.org/2000/svg" id="Layer_1" data-name="Layer 1" viewBox="0 0 24 24">
  <path d="m23.181,9.655c-.497-.452-1.143-.674-1.809-.652-.67.032-1.288.322-1.739.818l-3.732,4.102c-.314-1.108-1.335-1.922-2.542-1.922H2.5c-1.378,0-2.5,1.122-2.5,2.5v7c0,1.378,1.122,2.5,2.5,2.5h11.224l9.639-10.818c.912-1.022.83-2.604-.182-3.527Zm-.564,2.862l-9.34,10.483H2.5c-.827,0-1.5-.673-1.5-1.5v-7c0-.827.673-1.5,1.5-1.5h10.858c.905,0,1.642.737,1.642,1.642,0,.812-.606,1.511-1.404,1.625l-5.661.737.129.991,5.667-.738c1.021-.146,1.845-.878,2.146-1.824l4.495-4.94c.272-.298.644-.473,1.047-.492.398-.013.79.12,1.088.393.609.555.658,1.507.109,2.123ZM13.5,2h-3v6h-1.5V0h-3v8h-1.5V3H1.5v6h12V2ZM3.5,8h-1v-4h1v4Zm4.5,0h-1V1h1v7Zm4.5,0h-1V3h1v5Z"/>
</svg>
