<svg id="Layer_1" viewBox="0 0 24 24" xmlns="http://www.w3.org/2000/svg" data-name="Layer 1"><path d="m23.999 15.377-13.105-4.483 4.484 13.105 2.307-4.9 4.858 4.858 1.414-1.414-4.858-4.858zm-13.999 3.123c0-.369-.066-.719-.16-1.058l1.425-.821-.998-1.732-1.414.815c-.501-.511-1.14-.876-1.853-1.062v-1.642h-2v1.642c-.713.185-1.352.551-1.853 1.062l-1.414-.815-.998 1.732 1.425.821c-.094.339-.16.689-.16 1.058s.066.719.16 1.058l-1.425.821.998 1.732 1.414-.815c.501.511 1.14.876 1.853 1.062v1.642h2v-1.642c.713-.185 1.352-.551 1.853-1.062l1.414.815.998-1.732-1.425-.821c.094-.339.16-.689.16-1.058zm-4 1.5c-.827 0-1.5-.673-1.5-1.5s.673-1.5 1.5-1.5 1.5.673 1.5 1.5-.673 1.5-1.5 1.5zm15-20h-18c-1.654 0-3 1.346-3 3v4h24v-4c0-1.654-1.346-3-3-3zm-17.5 5c-.828 0-1.5-.672-1.5-1.5s.672-1.5 1.5-1.5 1.5.672 1.5 1.5-.672 1.5-1.5 1.5zm4 0c-.828 0-1.5-.672-1.5-1.5s.672-1.5 1.5-1.5 1.5.672 1.5 1.5-.672 1.5-1.5 1.5zm4.036 4h12.464v4.264zm-11.536 5.014v-5.014h8.132l.905 2.646c-.929-.412-1.955-.646-3.037-.646-2.457 0-4.632 1.187-6 3.014z"/></svg>