<?xml version="1.0" encoding="UTF-8"?>
<svg xmlns="http://www.w3.org/2000/svg" id="Layer_1" data-name="Layer 1" viewBox="0 0 24 24">
  <path d="M11,0H5C2.239,0,0,2.239,0,5v11H16V5c0-2.761-2.239-5-5-5Zm1.232,7.814l-3.128,3.36c-.54,.542-1.226,.825-1.955,.825s-1.414-.284-1.93-.799l-1.427-1.428c-.391-.391-.391-1.024,0-1.414,.391-.391,1.023-.391,1.414,0l1.427,1.427c.276,.276,.757,.275,1.031,0l3.103-3.334c.378-.404,1.01-.426,1.414-.051,.404,.376,.427,1.009,.051,1.413ZM0,17.998v1.5C0,21.983,2.016,23.998,4.501,23.998h7c2.485,0,4.5-2.015,4.5-4.5v-1.5H0Zm9,4h-2c-.552,0-1-.447-1-1s.448-1,1-1h2c.552,0,1,.447,1,1s-.448,1-1,1ZM24,7h-6V3h2.5c1.933,0,3.5,1.567,3.5,3.5v.5Zm0,2v3.5c0,1.933-1.567,3.5-3.5,3.5h-2.5v-7h6Z"/>
</svg>
